<?xml version="1.0" encoding="UTF-8"?><svg id="Layer_1" xmlns="http://www.w3.org/2000/svg" viewBox="0 0 600 235.1960801"><defs><style>.cls-1,.cls-2,.cls-3{stroke-width:0px;}.cls-1,.cls-3{fill:#333;}.cls-2{fill:#ffdd2d;}.cls-3{fill-rule:evenodd;}</style></defs><path class="cls-2" d="M79.1314937,57.1507689h131.8851112v66.3285944c0,17.003737-9.0710076,32.7163019-23.7958366,41.2190602l-42.1466872,24.3372932-42.1466282-24.3372932c-14.7251309-8.5027583-23.7959592-24.2153232-23.7959592-41.2190602V57.1507689Z"/><path class="cls-3" d="M115.3266532,92.0611474v20.6295996c2.8210172-3.1855903,7.9501007-5.3415978,13.8145601-5.3415978h6.3730211v23.98169c0,6.3802418-1.7335274,11.964794-4.3056438,15.0365525h27.7212899c-2.5667363-3.0748733-4.2962994-8.6523464-4.2962994-15.0243765v-23.9938661h6.3733043c5.8644594,0,10.9934013,2.1560075,13.8145601,5.3415978v-20.6295996h-59.4947922Z"/><path class="cls-1" d="M293.5668221,118.1866254c6.841695,1.9414993,9.9257992,7.3015238,9.9257992,12.6615482,0,6.3911557-3.7668803,11.7511801-9.8143255,14.0363899-2.9633411,1.1379601-6.5026293,1.4816705-11.2913513,1.4816705h-40.2744992v-54.3062443h39.4756047c5.016314,0,8.5556023.3437104,11.2913513,1.2540785,6.2750373,2.0576177,9.4706151,6.8463397,9.4706151,12.666193,0,5.9313269-3.8783539,10.0372728-8.7831943,12.2063642ZM279.4189585,113.509377c1.5977889,0,2.8518674-.1161184,3.6507619-.4551841,2.052973-.9150128,2.9679858-2.5128018,2.9679858-4.3381827s-.9150128-3.4231699-2.8565122-4.1059459c-.9103681-.3437104-2.1644466-.4551841-3.7622355-.4551841h-21.5608609v9.3544968h21.5608609ZM279.990261,133.8161594c1.5977889,0,2.8518674-.1114736,3.7622355-.4551841,2.052973-.7988945,2.9679858-2.3966834,2.9679858-4.333538,0-1.8300257-.9150128-3.3116962-2.7403938-3.9944723-.9103681-.3437104-2.1644466-.4551841-3.9898276-.4551841h-22.1321634v9.2383784h22.1321634Z"/><path class="cls-1" d="M326.1802782,138.4934078l-3.0794595,7.8728262h-18.7136382l22.2482817-54.3062443h24.1851363l22.2482817,54.3062443h-18.5975199l-3.1909331-7.8728262h-25.1001492ZM330.2862242,126.5146357h16.9997309l-7.8728262-21.9045713h-1.2540785l-7.8728262,21.9045713Z"/><path class="cls-1" d="M392.9921224,92.0599897l28.6347927,29.7773976v-29.7773976h15.7456524v54.3062443h-14.6030476l-29.3175688-30.0049896v30.0049896h-15.7456524v-54.3062443h15.2858236Z"/><path class="cls-1" d="M463.5607159,125.8318596v20.5343744h-16.5445469v-54.3062443h16.5445469v20.4229008h4.56113l19.963072-20.4229008h20.7666112l-26.4703461,26.015162,27.4968326,28.2910823h-22.0206897l-19.73548-20.5343744h-4.56113Z"/></svg>